<mxfile host="app.diagrams.net" modified="2024-06-11T14:55:09.197Z" agent="Mozilla/5.0 (Windows NT 10.0; Win64; x64) AppleWebKit/537.36 (KHTML, like Gecko) Chrome/125.0.0.0 Safari/537.36" version="24.5.3" etag="PYlQqH8xGg6XxQh7BPEv" type="github">
  <diagram name="페이지-1" id="sFnMp65Q1d8UFDYjqVYw">
    <mxGraphModel>
      <root>
        <mxCell id="0" />
        <mxCell id="1" parent="0" />
      </root>
    </mxGraphModel>
  </diagram>
</mxfile>
